<svg xmlns="http://www.w3.org/2000/svg" viewBox="0 0 1300.39 298.3"><defs><style>.cls-1{fill:#1751e1;}.cls-2{fill:#1750e1;}.cls-3{fill:#1851e1;}</style></defs><title>Fichier 1</title><g id="Calque_2" data-name="Calque 2"><g id="Calque_1-2" data-name="Calque 1"><path class="cls-1" d="M131.09,139.22c0-44.81.1-88.78-.13-132.75,0-5.55,1.47-6.84,7.48-6.39a176.8,176.8,0,0,0,26.74.07c5.42-.41,7,.15,7,5-.2,32.48-.11,64.95-.11,97.43,0,36.65.09,73.29,0,109.93a85.59,85.59,0,0,1-68.41,83.91c-45.42,9.5-92-20.24-101.48-64.71C-9.93,175,31.15,135.42,68,128.52c20.89-3.91,41.08-1.89,59.86,8.92Zm-43,43.69a7,7,0,0,0-6,4.44c-1.5,3.36-.48,6.16,1.94,8.62,8.29,8.42,16.5,16.93,25,25.2,2.64,2.58,3.14,4.11.15,7-8.63,8.32-16.94,17-25.25,25.6-3.35,3.48-3.28,7.7-.25,10.68s7.13,3.11,10.63-.4q16.56-16.64,32.88-33.51c3.89-4,3.8-7.74-.15-11.82-10.66-11-21.43-21.89-32.16-32.83A8.57,8.57,0,0,0,88.08,182.91Zm-4.46-24.23c-3,0-4.87,1.42-6.68,3.28-10.47,10.69-21,21.32-31.48,32-4.83,4.94-4.84,8.23,0,13.22Q61,223.08,76.64,238.84c4.3,4.34,8.36,4.78,11.68,1.41s3-7.37-1.28-11.75q-10.62-10.89-21.31-21.72c-6.11-6.21-6.11-6.21,0-12.48Q77,182.9,88.13,171.5c2.28-2.34,3.16-5.09,1.8-8.21A7.19,7.19,0,0,0,83.62,158.68Z"/><path class="cls-2" d="M1300.3,242.77c0,17-.1,34,.09,51,0,3.57-1,4.44-4.46,4.37-10.49-.23-21-.25-31.47,0-3.67.09-4.32-1.18-4.31-4.54q.18-48,0-96c0-13.88-9.24-26-21.94-29.45a31.08,31.08,0,0,0-35.38,14c-3.43,5.64-4.25,11.8-4.24,18.22,0,30.83-.08,61.66.1,92.49,0,4.08-.85,5.4-5.13,5.26-10.31-.34-20.65-.3-31,0-3.82.1-4.64-1-4.62-4.71q.23-47.25.06-94.49c0-15.32-9.2-27.56-22.74-30.89-20.48-5.05-38.77,9.21-38.86,30.58q-.23,47,0,94c0,4.2-.71,5.73-5.33,5.55-10.31-.42-20.64-.22-31-.08-2.83,0-4-.39-4-3.72.15-33.49-.28-67,.24-100.48.55-35,31.58-65.61,66.42-66.89,20.47-.76,38.47,4.87,53.21,19.41,2.89,2.85,3.91.36,5.45-1,22.22-20.21,55.46-24.84,81.21-10.27,23.52,13.31,37.07,33.44,37.51,61.16.24,15.5,0,31,0,46.5Z"/><path class="cls-2" d="M251.82,247.08c22.46,17.64,53.8,11.29,67.23-13.4,2.28-4.19,4.06-4.63,8.23-2.84,9.46,4.06,19.13,7.63,28.82,11.1,3.23,1.15,3.45,2.42,2.06,5.29-15.12,31.21-40.05,49-74.44,50.49-36.4,1.57-64-15.06-80.59-47.63-14.91-29.31-12.45-58.6,6-85.63,18.57-27.27,45.47-39.58,78.13-37.05,26.23,2,47.42,14.42,62.48,36.42,6,8.82,10.43,18.52,15,28.16,1.78,3.79.94,5.25-2.81,6.87-35.21,15.25-70.33,30.71-105.48,46.11C255,245.56,253.7,246.2,251.82,247.08Z"/><path class="cls-3" d="M956.55,128.81c44.47.22,79.07,32.27,83.39,75.9,4,40.77-25.12,79.82-66.2,87.74-23.22,4.47-44.92.15-64.41-13.95a107,107,0,0,1-13.16-11.41c-17.27-17.35-34.51-34.73-51.9-52-2.42-2.39-2.64-3.64-.09-6.18q33-32.72,65.66-65.73c6.71-6.78,14.66-9.58,19.15-11.11C936.64,129.21,949.79,128.56,956.55,128.81Zm44.16,83.08c-.4-18-8.34-31-23.58-38.93s-30.27-6.64-44.35,3.06c-13.39,9.22-23.42,22.12-35.22,33.09-2.46,2.28-.77,3.72.86,5.28,10.18,9.78,20.05,19.92,30.62,29.26,13.62,12,29.57,14.43,46,7.09C991.66,243.3,1000.21,229.69,1000.71,211.89Z"/><path class="cls-1" d="M763.05,127c41.72-.15,64.4,12.77,82.32,35.33,2.51,3.16,2,4.7-1.16,6.9q-12.63,9-24.78,18.55c-3.11,2.46-4.52,2.67-7.14-.92-11.26-15.46-26.83-21.73-45.48-18.14S736.32,184,731.88,202.32A44.84,44.84,0,0,0,812.3,238.2c2.54-3.59,3.92-3.51,7.08-1,8.23,6.49,16.67,12.72,25.2,18.82,2.74,2,3.29,3.34,1.07,6.2-23.08,29.76-53.39,42-89.88,33.43-35-8.19-57-31.51-64.62-66.73C679.9,176.83,721.55,127,763.05,127Z"/><path class="cls-1" d="M648.06,185.28c-5.16,0-10.34-.21-15.48.08-3.52.19-4.72-.7-5.14-4.5-1.1-10.19-9-15-21.58-13.81-8.55.82-13.35,6.83-13.27,16.29,0,4.84,2.68,7.66,6.65,9.65,5.47,2.75,11.5,3.13,17.41,4,12.16,1.89,23.53,5.62,33.36,13.42,21,16.65,24.79,55.8-1.09,75-27,20-65.72,15.92-85-9.7a47.25,47.25,0,0,1-9.47-25.86c-.22-3.24.73-3.92,3.77-3.87,10.82.17,21.64.11,32.46,0,2.27,0,3.7.26,4.08,3,.45,3.18,2.78,5.32,5.52,6.71,7.33,3.71,14.89,3.48,22.12,0,6.31-3,6.51-11.63.6-15.62-4-2.67-8.56-3.54-13.2-4.14-9.1-1.19-18-3-26.43-6.9-26.44-12.4-37.35-39.65-26.72-66.85,9.85-25.21,35.09-38.85,62.37-34.81a56.9,56.9,0,0,1,48.71,52.83c.21,3.71-.4,5.44-4.65,5.1C658.07,185,653.05,185.28,648.06,185.28Z"/><path class="cls-1" d="M368.23,127c13.43,0,26.73.09,40-.06,3.15,0,3.31,2.17,4,4.1Q427,171.25,441.74,211.5c2.48,6.79,5,13.57,7.92,21.61,2.66-7.21,4.9-13.21,7.09-19.23,10-27.47,20-54.94,29.91-82.46,1.17-3.26,2.53-4.67,6.26-4.57,11.31.29,22.63.16,33.95.06,3.06,0,4.59,0,3.14,4q-30,81.9-59.67,163.93c-.89,2.44-2,3.31-4.62,3.28-10.81-.14-21.63-.11-32.45,0-2.11,0-3.25-.52-4-2.64q-30.31-83.38-60.75-166.72A10.76,10.76,0,0,1,368.23,127Z"/></g></g></svg>